# xmcd
#
# Track frame offsets: 
#        150
#        22180
#        40105
#        66755
#        82342
#        102825
#        122832
#        141767
#        166570
#        191545
#
# Disc length: 2818 seconds
#
# Revision: 24
# Processed by: cddbd v1.5.2PL0 Copyright (c) Steve Scherf et al.
# Submitted via: ExactAudioCopyFreeDBPlugin 1.0
#
DISCID=840b000a
DTITLE=The Rolling Stones - Goats Head Soup 
DYEAR=1973
DGENRE=Rock and Roll
TTITLE0=Dancing With Mr D.
TTITLE1=100 Years Ago
TTITLE2=Coming Down Again
TTITLE3=Doo Doo Doo Doo Doo (Heartbreaker)
TTITLE4=Angie
TTITLE5=Silver Train
TTITLE6=Hide Your Love
TTITLE7=Winter
TTITLE8=Can You Hear The Music?
TTITLE9=Star Star
EXTD=YEAR: 1973
EXTT0=
EXTT1=
EXTT2=
EXTT3=
EXTT4=
EXTT5=
EXTT6=
EXTT7=
EXTT8=
EXTT9=
PLAYORDER=
